<?xml version="1.0" encoding="UTF-8" standalone="no"?>
<!DOCTYPE svg PUBLIC "-//W3C//DTD SVG 1.1//EN"
 "http://www.w3.org/Graphics/SVG/1.1/DTD/svg11.dtd">
<!-- Generated by graphviz version 2.43.0 (0)
 -->
<!-- Title: tree Pages: 1 -->
<svg width="134pt" height="260pt"
 viewBox="0.00 0.00 134.00 260.00" xmlns="http://www.w3.org/2000/svg" xmlns:xlink="http://www.w3.org/1999/xlink">
<g id="graph0" class="graph" transform="scale(1 1) rotate(0) translate(4 256)">
<title>tree</title>
<polygon fill="white" stroke="transparent" points="-4,4 -4,-256 130,-256 130,4 -4,4"/>
<!-- A -->
<g id="node1" class="node">
<title>A</title>
<ellipse fill="none" stroke="black" cx="27" cy="-162" rx="27" ry="18"/>
<text text-anchor="middle" x="27" y="-158.3" font-family="Times,serif" font-size="14.00">A</text>
</g>
<!-- Root -->
<g id="node2" class="node">
<title>Root</title>
<ellipse fill="none" stroke="black" cx="63" cy="-234" rx="32.49" ry="18"/>
<text text-anchor="middle" x="63" y="-230.3" font-family="Times,serif" font-size="14.00">Root</text>
</g>
<!-- A&#45;&gt;Root -->
<g id="edge1" class="edge">
<title>A&#45;&gt;Root</title>
<path fill="none" stroke="black" d="M35.35,-179.24C39.65,-187.6 44.99,-197.98 49.83,-207.39"/>
<polygon fill="black" stroke="black" points="46.76,-209.07 54.45,-216.37 52.98,-205.87 46.76,-209.07"/>
</g>
<!-- B -->
<g id="node3" class="node">
<title>B</title>
<ellipse fill="none" stroke="black" cx="99" cy="-162" rx="27" ry="18"/>
<text text-anchor="middle" x="99" y="-158.3" font-family="Times,serif" font-size="14.00">B</text>
</g>
<!-- B&#45;&gt;Root -->
<g id="edge2" class="edge">
<title>B&#45;&gt;Root</title>
<path fill="none" stroke="black" d="M90.65,-179.24C86.35,-187.6 81.01,-197.98 76.17,-207.39"/>
<polygon fill="black" stroke="black" points="73.02,-205.87 71.55,-216.37 79.24,-209.07 73.02,-205.87"/>
</g>
<!-- C -->
<g id="node4" class="node">
<title>C</title>
<ellipse fill="none" stroke="black" cx="99" cy="-90" rx="27" ry="18"/>
<text text-anchor="middle" x="99" y="-86.3" font-family="Times,serif" font-size="14.00">C</text>
</g>
<!-- C&#45;&gt;B -->
<g id="edge3" class="edge">
<title>C&#45;&gt;B</title>
<path fill="none" stroke="black" d="M99,-108.3C99,-116.02 99,-125.29 99,-133.89"/>
<polygon fill="black" stroke="black" points="95.5,-133.9 99,-143.9 102.5,-133.9 95.5,-133.9"/>
</g>
<!-- D -->
<g id="node5" class="node">
<title>D</title>
<ellipse fill="none" stroke="black" cx="99" cy="-18" rx="27" ry="18"/>
<text text-anchor="middle" x="99" y="-14.3" font-family="Times,serif" font-size="14.00">D</text>
</g>
<!-- D&#45;&gt;C -->
<g id="edge4" class="edge">
<title>D&#45;&gt;C</title>
<path fill="none" stroke="black" d="M99,-36.3C99,-44.02 99,-53.29 99,-61.89"/>
<polygon fill="black" stroke="black" points="95.5,-61.9 99,-71.9 102.5,-61.9 95.5,-61.9"/>
</g>
</g>
</svg>
